<svg width="64" height="64" viewBox="0 0 64 64" fill="none" xmlns="http://www.w3.org/2000/svg">
<path fill-rule="evenodd" clip-rule="evenodd" d="M5.33325 10.6667C5.33325 7.72114 7.72107 5.33333 10.6666 5.33333H53.3333C56.2788 5.33333 58.6666 7.72114 58.6666 10.6667V24C58.6666 26.9455 56.2788 29.3333 53.3333 29.3333H10.6666C7.72107 29.3333 5.33325 26.9455 5.33325 24V10.6667ZM21.3333 17.3333C21.3333 15.1242 19.5424 13.3333 17.3333 13.3333C15.1241 13.3333 13.3333 15.1242 13.3333 17.3333C13.3333 19.5425 15.1241 21.3333 17.3333 21.3333C19.5424 21.3333 21.3333 19.5425 21.3333 17.3333ZM5.33325 40C5.33325 37.0545 7.72107 34.6667 10.6666 34.6667H53.3333C56.2788 34.6667 58.6666 37.0545 58.6666 40V53.3333C58.6666 56.2789 56.2788 58.6667 53.3333 58.6667H10.6666C7.72107 58.6667 5.33325 56.2789 5.33325 53.3333V40ZM21.3333 46.6667C21.3333 44.4575 19.5424 42.6667 17.3333 42.6667C15.1241 42.6667 13.3333 44.4575 13.3333 46.6667C13.3333 48.8758 15.1241 50.6667 17.3333 50.6667C19.5424 50.6667 21.3333 48.8758 21.3333 46.6667Z" fill="url(#paint0_linear_4_12008)"/>
<defs>
<linearGradient id="paint0_linear_4_12008" x1="5.33325" y1="5.33333" x2="64.4511" y2="12.7869" gradientUnits="userSpaceOnUse">
<stop stop-color="#DA47FF"/>
<stop offset="1" stop-color="#3A89FF"/>
</linearGradient>
</defs>
</svg>
