<svg width="16" height="16" viewBox="0 0 16 16" fill="none" xmlns="http://www.w3.org/2000/svg">
  <path d="M14.5 2.5H1.5C1.224 2.5 1 2.724 1 3C1 3.276 1.224 3.5 1.5 3.5H14.5C14.776 3.5 15 3.276 15 3C15 2.724 14.776 2.5 14.5 2.5Z" fill="#4E5969"/>
  <path d="M12.5 7.5H3.5C3.224 7.5 3 7.724 3 8C3 8.276 3.224 8.5 3.5 8.5H12.5C12.776 8.5 13 8.276 13 8C13 7.724 12.776 7.5 12.5 7.5Z" fill="#4E5969"/>
  <path d="M10.5 12.5H5.5C5.224 12.5 5 12.724 5 13C5 13.276 5.224 13.5 5.5 13.5H10.5C10.776 13.5 11 13.276 11 13C11 12.724 10.776 12.5 10.5 12.5Z" fill="#4E5969"/>
</svg>
