<svg width="14" height="14" viewBox="0 0 14 14" fill="none" xmlns="http://www.w3.org/2000/svg">
  <path d="M7 1.16667C7.32217 1.16667 7.58333 1.42783 7.58333 1.75V6.41667H12.25C12.5722 6.41667 12.8333 6.67783 12.8333 7C12.8333 7.32217 12.5722 7.58333 12.25 7.58333H7.58333V12.25C7.58333 12.5722 7.32217 12.8333 7 12.8333C6.67783 12.8333 6.41667 12.5722 6.41667 12.25V7.58333H1.75C1.42783 7.58333 1.16667 7.32217 1.16667 7C1.16667 6.67783 1.42783 6.41667 1.75 6.41667H6.41667V1.75C6.41667 1.42783 6.67783 1.16667 7 1.16667Z" fill="white"/>
</svg>
