<svg width="16" height="16" viewBox="0 0 16 16" fill="none" xmlns="http://www.w3.org/2000/svg">
  <path d="M14.2716 13.1684L11.3313 10.2281C12.0391 9.28574 12.4213 8.13865 12.4213 6.91068C12.4213 3.93907 10.0093 1.52704 7.03768 1.52704C4.06608 1.52704 1.65405 3.93907 1.65405 6.91068C1.65405 9.88229 4.06608 12.2943 7.03768 12.2943C8.26566 12.2943 9.41275 11.9121 10.3551 11.2043L13.2954 14.1446C13.4557 14.3049 13.6711 14.3851 13.8865 14.3851C14.1019 14.3851 14.3173 14.3049 14.4776 14.1446C14.7982 13.824 14.7982 13.489 14.2716 13.1684ZM7.03768 10.9943C4.78843 10.9943 2.95405 9.15994 2.95405 6.91068C2.95405 4.66143 4.78843 2.82704 7.03768 2.82704C9.28694 2.82704 11.1213 4.66143 11.1213 6.91068C11.1213 9.15994 9.28694 10.9943 7.03768 10.9943Z" fill="#86909C"/>
</svg>
